<svg width="32" height="32" viewBox="0 0 32 32" fill="none" xmlns="http://www.w3.org/2000/svg">
<path fill-rule="evenodd" clip-rule="evenodd" d="M14.25 26.5L16 30L17.75 26.5H14.25ZM24.6621 22.1872L22.1872 24.6621L25.8995 25.8995L24.6621 22.1872ZM7.33794 22.1872L6.1005 25.8995L9.81281 24.6621L7.33794 22.1872ZM16 7.25C11.1675 7.25 7.25 11.1675 7.25 16C7.25 20.8325 11.1675 24.75 16 24.75C20.8325 24.75 24.75 20.8325 24.75 16C24.75 11.1675 20.8325 7.25 16 7.25ZM26.5 14.25V17.75L30 16L26.5 14.25ZM5.5 14.25L2 16L5.5 17.75V14.25ZM25.8995 6.1005L22.1872 7.33794L24.6621 9.81282L25.8995 6.1005ZM6.1005 6.1005L7.33794 9.81282L9.81281 7.33794L6.1005 6.1005ZM16 2L14.25 5.5H17.75L16 2Z" fill="#FCB400"/>
</svg>
