<svg width="32" height="32" viewBox="0 0 32 32" fill="none" xmlns="http://www.w3.org/2000/svg">
<path fill-rule="evenodd" clip-rule="evenodd" d="M22.1872 24.6621L24.6621 22.1872L25.8995 25.8995L22.1872 24.6621ZM7.25 16C7.25 11.1675 11.1675 7.25 16 7.25C20.8325 7.25 24.75 11.1675 24.75 16C24.75 19.5238 22.667 22.5611 19.6651 23.9477C19.2158 21.5333 17.0357 19.709 14.4242 19.709L14.1605 19.7153L13.8985 19.734L13.753 19.75L13.5967 19.6233C12.464 18.7426 11.0508 18.25 9.55988 18.25L9.28592 18.2556C8.71368 18.2789 8.1556 18.3748 7.62336 18.5367C7.38054 17.7338 7.25 16.8821 7.25 16ZM30 16L26.5 17.75V14.25L30 16ZM2 16L5.5 14.25V17.75L2 16ZM22.1872 7.33794L25.8995 6.1005L24.6621 9.81282L22.1872 7.33794ZM7.33794 9.81282L6.1005 6.1005L9.81281 7.33794L7.33794 9.81282ZM14.25 5.5L16 2L17.75 5.5H14.25Z" fill="#FCB400"/>
<path d="M9.55988 19.75C10.8681 19.75 12.0932 20.2375 13.0117 21.0934L13.2906 21.3533L13.6649 21.2812C13.9132 21.2334 14.167 21.209 14.4242 21.209C16.5432 21.209 18.25 22.8548 18.25 24.8711C18.25 26.8874 16.5431 28.5332 14.4242 28.5332C13.9599 28.5332 13.5076 28.454 13.082 28.3014L12.7241 28.173L12.409 28.3859C11.5812 28.9451 10.5955 29.25 9.55988 29.25C7.76462 29.25 6.14097 28.3274 5.26321 26.8656L5.08718 26.5724L4.75042 26.5131C3.59444 26.3093 2.75 25.3427 2.75 24.2175C2.75 22.976 3.77359 21.9446 5.08084 21.8856L5.41958 21.8703L5.63187 21.6059C6.56408 20.4448 8.00028 19.75 9.55988 19.75Z" fill="white" stroke="#505F79" stroke-width="0.7"/>
</svg>
