<svg width="32" height="32" viewBox="0 0 32 32" fill="none" xmlns="http://www.w3.org/2000/svg">
<path fill-rule="evenodd" clip-rule="evenodd" d="M2.65527 15.3714L4.32 13.4855L5.16287 15.5717L2.65527 15.3714ZM5.82209 9.80213C7.03593 6.94248 10.3381 5.6083 13.1978 6.82215C15.2981 7.71368 16.5755 9.73176 16.6249 11.8736C16.276 12.0573 15.9465 12.2758 15.6418 12.5262L15.5309 12.621L15.346 12.5283C14.5624 12.1583 13.6957 11.9614 12.8001 11.9614L12.5712 11.9657C9.98836 12.0627 7.82549 13.7937 7.18491 16.1356C5.48787 14.57 4.86817 12.0494 5.82209 9.80213ZM2.71538 8.48341L5.22609 8.32699L4.34695 10.3981L2.71538 8.48341ZM16.837 8.42831L19.3446 8.62853L17.6799 10.5145L16.837 8.42831ZM7.42825 6.16293L7.62847 3.65533L9.51441 5.32007L7.42825 6.16293ZM12.6018 5.34701L14.5165 3.71545L14.6729 6.22615L12.6018 5.34701Z" fill="#FCB400"/>
<path d="M19.3998 12.8077C21.723 12.8077 23.5932 14.6056 23.5932 16.8076C23.5932 16.9737 23.5816 17.1441 23.5587 17.319L23.4239 18.3511L24.4572 18.2254C24.6368 18.2035 24.8179 18.1925 25.0005 18.1925C27.3224 18.1925 29.1922 19.9905 29.1922 22.1922C29.1922 24.3943 27.3225 26.1923 25.0005 26.1923H6.99964C4.67745 26.1923 2.80762 24.3943 2.80762 22.1922C2.80762 19.9906 4.67756 18.1925 6.99964 18.1925L7.17562 18.1986L7.4126 18.2172L7.70823 18.2485L8.58433 18.3504L8.60891 17.4687C8.66903 15.3122 10.5198 13.5768 12.8001 13.5768C13.6732 13.5768 14.5037 13.8312 15.2022 14.2981L15.7776 14.6826L16.2458 14.173C17.0369 13.3118 18.1742 12.8077 19.3998 12.8077Z" fill="white" stroke="#505F79" stroke-width="0.7"/>
</svg>
