<svg width="32" height="32" viewBox="0 0 32 32" fill="none" xmlns="http://www.w3.org/2000/svg">
<path fill-rule="evenodd" clip-rule="evenodd" d="M24.3098 23.2416C20.1233 24.3703 15.5767 22.6094 13.3259 18.862C10.4899 14.2115 11.9304 8.11618 16.5671 5.27171C16.9272 5.04595 17.3323 4.86535 17.7375 4.68475C18.0526 4.5493 18.2326 4.23325 18.1876 3.9172C18.1426 3.60114 17.9175 3.33024 17.5574 3.23994C14.3613 2.60783 11.0301 3.23994 8.23907 4.95565C5.26801 6.80682 3.19727 9.65129 2.38698 13.0827C1.53168 16.4238 2.11689 19.9456 3.91753 22.9255C5.76319 25.9054 8.5992 27.9823 12.0204 28.795C13.0558 29.0208 14.0462 29.1562 15.0815 29.1562C17.4674 29.1562 19.8082 28.479 21.879 27.2148C23.0944 26.4924 24.1748 25.5442 25.0751 24.4606C25.3002 24.1897 25.3002 23.8285 25.1201 23.5576C24.9851 23.2867 24.6249 23.1513 24.3098 23.2416Z" fill="#FCB400"/>
<path fill-rule="evenodd" clip-rule="evenodd" d="M28.75 14.1406C28.8391 14.1406 28.9115 14.213 28.9115 14.3021C28.9115 14.6583 29.2011 14.9479 29.5573 14.9479C29.6464 14.9479 29.7188 15.0202 29.7188 15.1094C29.7188 15.1985 29.6464 15.2708 29.5573 15.2708C29.2011 15.2708 28.9115 15.5605 28.9115 15.9167C28.9115 16.0058 28.8391 16.0781 28.75 16.0781C28.6609 16.0781 28.5885 16.0058 28.5885 15.9167C28.5885 15.5605 28.2989 15.2708 27.9427 15.2708C27.8536 15.2708 27.7812 15.1985 27.7812 15.1094C27.7812 15.0202 27.8536 14.9479 27.9427 14.9479C28.2989 14.9479 28.5885 14.6583 28.5885 14.3021C28.5885 14.213 28.6609 14.1406 28.75 14.1406ZM22.9375 8.32812C23.1158 8.32812 23.2604 8.47279 23.2604 8.65104C23.2604 9.3634 23.8397 9.94271 24.5521 9.94271C24.7303 9.94271 24.875 10.0874 24.875 10.2656C24.875 10.4439 24.7303 10.5885 24.5521 10.5885C23.8397 10.5885 23.2604 11.1679 23.2604 11.8802C23.2604 12.0585 23.1158 12.2031 22.9375 12.2031C22.7593 12.2031 22.6146 12.0585 22.6146 11.8802C22.6146 11.1679 22.0353 10.5885 21.3229 10.5885C21.1447 10.5885 21 10.4439 21 10.2656C21 10.0874 21.1447 9.94271 21.3229 9.94271C22.0353 9.94271 22.6146 9.3634 22.6146 8.65104C22.6146 8.47279 22.7593 8.32812 22.9375 8.32812Z" fill="#FCB400"/>
</svg>
