<svg fill="#fff" xmlns="http://www.w3.org/2000/svg" viewBox="0 0 24 24" style="enable-background:new 0 0 24 24" xml:space="preserve"><path d="M11.536 2.259c-.702.153-1.32.722-1.54 1.418a2.313 2.313 0 0 0 0 1.246A2.146 2.146 0 0 0 11.53 6.34c1.05.247 2.146-.38 2.474-1.417a2.313 2.313 0 0 0 0-1.246 2.116 2.116 0 0 0-2.468-1.418M4.12 6.084c-.22.064-.448.242-.579.453-.099.161-.123.248-.135.49-.013.256-.001.323.092.513.117.239.339.452.599.574.092.044 1.327.34 2.743.658 2.771.622 2.679.594 2.748.863.04.159-.057 2.014-.146 2.792-.244 2.124-.831 4.44-1.73 6.828-.303.806-.363 1.004-.366 1.205-.006.484.229.884.639 1.084.546.267 1.342.035 1.629-.477.051-.092.604-1.549 1.229-3.237.624-1.688 1.145-3.07 1.157-3.07.012 0 .532 1.382 1.157 3.07.624 1.688 1.179 3.148 1.233 3.244.224.398.532.583 1.05.631.217.021.272.013.318-.042a.587.587 0 0 1 .179-.121c.379-.163.666-.592.694-1.039.017-.277.009-.304-.35-1.263-1.233-3.286-1.719-5.511-1.848-8.449-.045-1.02-.044-1.12.019-1.251a.408.408 0 0 1 .158-.18c.049-.022 1.251-.299 2.671-.617 1.419-.318 2.632-.597 2.695-.622.202-.076.415-.276.521-.49.334-.669-.142-1.558-.835-1.562-.111-.001-1.246.154-2.522.343-3.2.476-3.287.484-5.14.484-1.847 0-1.925-.007-5.14-.48-2.735-.403-2.564-.382-2.74-.332" fill-rule="evenodd"/></svg>